<svg width="20" height="20" viewBox="0 0 20 20" fill="none" xmlns="http://www.w3.org/2000/svg">
<path d="M11.6668 5.83337V5.83337C11.6668 5.36872 11.6668 5.13639 11.6284 4.94319C11.4706 4.14981 10.8504 3.52962 10.057 3.3718C9.86381 3.33337 9.63148 3.33337 9.16683 3.33337H7.3335C5.44788 3.33337 4.50507 3.33337 3.91928 3.91916C3.3335 4.50495 3.3335 5.44776 3.3335 7.33338V9.16671C3.3335 9.63136 3.3335 9.86369 3.37193 10.0569C3.52974 10.8503 4.14993 11.4705 4.94332 11.6283C5.13651 11.6667 5.36884 11.6667 5.8335 11.6667V11.6667" stroke="#4D5562" stroke-width="2"/>
<rect x="8.3335" y="8.33337" width="8.33333" height="8.33333" rx="2" stroke="#4D5562" stroke-width="2"/>
</svg>
